<svg width="14" height="14" viewBox="0 0 14 14" fill="none" xmlns="http://www.w3.org/2000/svg">
<path d="M3.43837 4.09151C3.21288 4.09151 3.04689 3.8804 3.10007 3.66127L3.47345 2.12302C3.5261 1.9061 3.76642 1.79409 3.9664 1.89325L6.01561 2.90936C6.13412 2.96813 6.20908 3.08897 6.20908 3.22125V3.74338C6.20908 3.93565 6.05322 4.09151 5.86096 4.09151H3.43837Z" fill="#E065FF"/>
<path fill-rule="evenodd" clip-rule="evenodd" d="M3.87045 2.33147L3.54887 3.65635H5.77374V3.27523L3.87045 2.33147ZM3.05039 2.02037C3.16885 1.5323 3.70957 1.28027 4.15952 1.50338L6.20873 2.5195C6.47537 2.65171 6.64405 2.92362 6.64405 3.22124V3.74338C6.64405 4.17597 6.29336 4.52665 5.86077 4.52665H3.43818C2.93082 4.52665 2.55733 4.05166 2.67701 3.55862L3.05039 2.02037Z" fill="#333333"/>
<path d="M10.6403 4.19514C10.8644 4.19514 11.0301 3.98643 10.9793 3.76814L10.5996 2.13576C10.5481 1.91463 10.3022 1.80112 10.1005 1.90544L8.0534 2.96452C7.93781 3.02431 7.86523 3.14358 7.86523 3.27371V3.84702C7.86523 4.03928 8.02109 4.19514 8.21336 4.19514H10.6403Z" fill="#E065FF"/>
<path fill-rule="evenodd" clip-rule="evenodd" d="M9.90043 1.51895C10.3541 1.28422 10.9075 1.53961 11.0232 2.03715L11.403 3.66953C11.5173 4.1607 11.1444 4.63029 10.6401 4.63029H8.21321C7.78062 4.63029 7.42993 4.27961 7.42993 3.84702V3.27371C7.42993 2.98091 7.59324 2.71256 7.8533 2.57802L9.90043 1.51895ZM10.2009 2.34336L8.30024 3.32667V3.75998H10.5305L10.2009 2.34336Z" fill="#333333"/>
<path d="M7.77355 2.52348H6.30073C5.82007 2.52348 5.43042 2.91313 5.43042 3.39379V4.04492C5.43042 4.52558 5.82007 4.91523 6.30073 4.91523H7.77355C8.25421 4.91523 8.64386 4.52558 8.64386 4.04493V3.39379C8.64386 2.91313 8.25421 2.52348 7.77355 2.52348Z" fill="#E065FF"/>
<path fill-rule="evenodd" clip-rule="evenodd" d="M4.99536 3.39379C4.99536 2.67281 5.57984 2.08833 6.30082 2.08833H7.77365C8.49463 2.08833 9.07911 2.67281 9.07911 3.39379V4.04493C9.07911 4.76591 8.49463 5.35039 7.77365 5.35039H6.30082C5.57984 5.35039 4.99536 4.76591 4.99536 4.04493V3.39379ZM6.30082 2.95864C6.06049 2.95864 5.86567 3.15346 5.86567 3.39379V4.04493C5.86567 4.28526 6.06049 4.48008 6.30082 4.48008H7.77365C8.01397 4.48008 8.2088 4.28526 8.2088 4.04493V3.39379C8.2088 3.15346 8.01397 2.95864 7.77365 2.95864H6.30082Z" fill="#333333"/>
<path d="M10.9541 4.17093H3.05439C2.57373 4.17093 2.18408 4.56058 2.18408 5.04124V11.2731C2.18408 11.7538 2.57373 12.1434 3.05439 12.1434H10.9541C11.4347 12.1434 11.8244 11.7538 11.8244 11.2731V5.04124C11.8244 4.56058 11.4347 4.17093 10.9541 4.17093Z" fill="#FFDC5F"/>
<path fill-rule="evenodd" clip-rule="evenodd" d="M1.74878 5.04124C1.74878 4.32025 2.33325 3.73578 3.05424 3.73578H10.9539C11.6749 3.73578 12.2594 4.32025 12.2594 5.04124V11.2731C12.2594 11.9941 11.6749 12.5786 10.9539 12.5786H3.05424C2.33325 12.5786 1.74878 11.9941 1.74878 11.2731V5.04124ZM3.05424 4.60608C2.81391 4.60608 2.61909 4.80091 2.61909 5.04124V11.2731C2.61909 11.5134 2.81391 11.7083 3.05424 11.7083H10.9539C11.1943 11.7083 11.3891 11.5134 11.3891 11.2731V5.04124C11.3891 4.80091 11.1943 4.60608 10.9539 4.60608H3.05424Z" fill="#333333"/>
<path d="M8.6441 9.69843V4.17093H5.43066V12.1434H8.6441V10.448V9.69843Z" fill="#E065FF"/>
<path fill-rule="evenodd" clip-rule="evenodd" d="M4.99561 4.17093C4.99561 3.9306 5.19043 3.73578 5.43076 3.73578H8.6442C8.88452 3.73578 9.07935 3.9306 9.07935 4.17093V12.1434C9.07935 12.3838 8.88452 12.5786 8.6442 12.5786H5.43076C5.19043 12.5786 4.99561 12.3838 4.99561 12.1434V4.17093ZM5.86591 4.60608V11.7083H8.20904V4.60608H5.86591Z" fill="#333333"/>
<path d="M1.77808 5.52575V4.6402V4.60608C1.77808 4.36575 1.9729 4.17093 2.21323 4.17093H11.7866C12.0269 4.17093 12.2217 4.36575 12.2217 4.60608V6.12752C12.2217 6.36785 12.0269 6.56268 11.7866 6.56268H2.21323C1.9729 6.56268 1.77808 6.36785 1.77808 6.12752V5.3668" fill="#FFDC5F"/>
<path fill-rule="evenodd" clip-rule="evenodd" d="M1.34302 4.60608C1.34302 4.12543 1.73267 3.73578 2.21332 3.73578H11.7867C12.2673 3.73578 12.657 4.12543 12.657 4.60608V6.12753C12.657 6.60818 12.2673 6.99783 11.7867 6.99783H2.21332C1.73267 6.99783 1.34302 6.60818 1.34302 6.12753V4.60608ZM2.21332 6.12753H11.7867V4.60608L2.21332 4.60608V6.12753Z" fill="#333333"/>
<path d="M8.67719 5.88832V4.17093H5.43066V6.64211H8.67719V6.12145V5.88832Z" fill="#E065FF"/>
<path fill-rule="evenodd" clip-rule="evenodd" d="M4.99561 4.17093C4.99561 3.9306 5.19043 3.73578 5.43076 3.73578H8.67728C8.91761 3.73578 9.11244 3.9306 9.11244 4.17093V6.64211C9.11244 6.88244 8.91761 7.07726 8.67728 7.07726H5.43076C5.19043 7.07726 4.99561 6.88244 4.99561 6.64211V4.17093ZM5.86591 4.60608V6.20696H8.24213V4.60608H5.86591Z" fill="#333333"/>
</svg>
